<svg width="100" height="100" viewBox="0 0 100 100" fill="none" xmlns="http://www.w3.org/2000/svg">
<path d="M8.3335 83.3333H16.6668M16.6668 83.3333H37.5002M16.6668 83.3333V30C16.6668 25.3333 16.6668 23 17.5752 21.2166C18.3752 19.6458 19.646 18.375 21.2168 17.575C23.0002 16.6666 25.3335 16.6666 30.0002 16.6666H36.6668C41.3335 16.6666 43.6668 16.6666 45.446 17.575C47.0168 18.375 48.296 19.6458 49.0918 21.2166C50.0002 22.9958 50.0002 25.3291 50.0002 29.9875V41.6666M37.5002 83.3333H83.3335M37.5002 83.3333V59.8666C37.5002 57.6791 37.5002 56.5833 37.7627 55.5625C37.9988 54.6513 38.3766 53.8041 38.896 53.0208C39.4793 52.1458 40.296 51.4083 41.921 49.95L51.5127 41.3333C54.6585 38.5083 56.2335 37.0958 58.0127 36.5583C59.5806 36.0858 61.253 36.0858 62.821 36.5583C64.6043 37.0958 66.1793 38.5083 69.3293 41.3375L78.9127 49.95C80.5377 51.4083 81.3502 52.1458 81.9377 53.0208C82.4543 53.8 82.8377 54.6583 83.0668 55.5625C83.3335 56.5833 83.3335 57.6791 83.3335 59.8666V83.3333M83.3335 83.3333H91.6668" stroke="#ED3237" stroke-width="7" stroke-linecap="round" stroke-linejoin="round"/>
</svg>
