<svg width="83" height="83" viewBox="0 0 83 83" fill="none" xmlns="http://www.w3.org/2000/svg">
<path d="M38.651 42.8995V51.1752C38.651 51.7126 38.905 52.053 39.4129 52.1963C39.9209 52.3396 40.3141 52.1963 40.5926 51.7664L48.044 40.2664C48.2889 39.9081 48.3154 39.5412 48.1237 39.1658C47.932 38.7903 47.6256 38.6019 47.2044 38.6005H42.849V30.3248C42.849 29.7874 42.595 29.447 42.0871 29.3037C41.5791 29.1604 41.1859 29.3037 40.9074 29.7336L33.456 41.2336C33.2111 41.5919 33.1846 41.9595 33.3763 42.3364C33.568 42.7132 33.8744 42.901 34.2956 42.8995H38.651Z" fill="#ED3237"/>
<path d="M38.5 11V2.75C38.5 2.02065 38.7897 1.32118 39.3055 0.805456C39.8212 0.289731 40.5207 0 41.25 0C41.9793 0 42.6788 0.289731 43.1945 0.805456C43.7103 1.32118 44 2.02065 44 2.75V11C44 11.7293 43.7103 12.4288 43.1945 12.9445C42.6788 13.4603 41.9793 13.75 41.25 13.75C40.5207 13.75 39.8212 13.4603 39.3055 12.9445C38.7897 12.4288 38.5 11.7293 38.5 11ZM63.25 41.25C63.25 45.6012 61.9597 49.8547 59.5423 53.4725C57.1249 57.0904 53.689 59.9102 49.669 61.5754C45.6491 63.2405 41.2256 63.6762 36.958 62.8273C32.6904 61.9784 28.7704 59.8831 25.6936 56.8064C22.6169 53.7296 20.5216 49.8096 19.6727 45.542C18.8238 41.2744 19.2595 36.8509 20.9247 32.831C22.5898 28.811 25.4096 25.3751 29.0275 22.9577C32.6453 20.5403 36.8988 19.25 41.25 19.25C47.0828 19.2564 52.6749 21.5763 56.7993 25.7007C60.9237 29.8251 63.2436 35.4172 63.25 41.25ZM57.75 41.25C57.75 37.9866 56.7823 34.7965 54.9692 32.0831C53.1562 29.3697 50.5793 27.2548 47.5643 26.006C44.5493 24.7571 41.2317 24.4304 38.031 25.067C34.8303 25.7037 31.8903 27.2752 29.5827 29.5827C27.2752 31.8903 25.7037 34.8303 25.067 38.031C24.4304 41.2317 24.7571 44.5493 26.006 47.5643C27.2548 50.5793 29.3697 53.1562 32.0831 54.9692C34.7965 56.7823 37.9866 57.75 41.25 57.75C45.6247 57.7454 49.8189 56.0056 52.9122 52.9122C56.0056 49.8189 57.7454 45.6247 57.75 41.25ZM17.3044 21.1956C17.8204 21.7116 18.5202 22.0015 19.25 22.0015C19.9798 22.0015 20.6796 21.7116 21.1956 21.1956C21.7116 20.6796 22.0015 19.9798 22.0015 19.25C22.0015 18.5202 21.7116 17.8204 21.1956 17.3044L15.6956 11.8044C15.1796 11.2884 14.4798 10.9985 13.75 10.9985C13.0202 10.9985 12.3204 11.2884 11.8044 11.8044C11.2884 12.3204 10.9985 13.0202 10.9985 13.75C10.9985 14.4798 11.2884 15.1796 11.8044 15.6956L17.3044 21.1956ZM17.3044 61.3044L11.8044 66.8044C11.2884 67.3204 10.9985 68.0202 10.9985 68.75C10.9985 69.4798 11.2884 70.1796 11.8044 70.6956C12.3204 71.2116 13.0202 71.5015 13.75 71.5015C14.4798 71.5015 15.1796 71.2116 15.6956 70.6956L21.1956 65.1956C21.4511 64.9401 21.6538 64.6368 21.7921 64.303C21.9304 63.9691 22.0015 63.6113 22.0015 63.25C22.0015 62.8887 21.9304 62.5309 21.7921 62.197C21.6538 61.8632 21.4511 61.5599 21.1956 61.3044C20.9401 61.0489 20.6368 60.8462 20.303 60.7079C19.9691 60.5696 19.6113 60.4985 19.25 60.4985C18.8887 60.4985 18.5309 60.5696 18.197 60.7079C17.8632 60.8462 17.5599 61.0489 17.3044 61.3044ZM63.25 22C63.6112 22.0003 63.969 21.9294 64.3028 21.7914C64.6367 21.6534 64.94 21.4509 65.1956 21.1956L70.6956 15.6956C71.2116 15.1796 71.5015 14.4798 71.5015 13.75C71.5015 13.0202 71.2116 12.3204 70.6956 11.8044C70.1796 11.2884 69.4798 10.9985 68.75 10.9985C68.0202 10.9985 67.3204 11.2884 66.8044 11.8044L61.3044 17.3044C60.9193 17.689 60.6571 18.1792 60.5508 18.7129C60.4445 19.2466 60.499 19.7999 60.7073 20.3027C60.9156 20.8054 61.2684 21.2351 61.721 21.5372C62.1737 21.8394 62.7058 22.0004 63.25 22ZM65.1956 61.3044C64.6796 60.7884 63.9798 60.4985 63.25 60.4985C62.5202 60.4985 61.8204 60.7884 61.3044 61.3044C60.7884 61.8204 60.4985 62.5202 60.4985 63.25C60.4985 63.9798 60.7884 64.6796 61.3044 65.1956L66.8044 70.6956C67.0599 70.9511 67.3632 71.1538 67.697 71.2921C68.0309 71.4304 68.3887 71.5015 68.75 71.5015C69.1113 71.5015 69.4691 71.4304 69.803 71.2921C70.1368 71.1538 70.4401 70.9511 70.6956 70.6956C70.9511 70.4401 71.1538 70.1368 71.2921 69.803C71.4304 69.4691 71.5015 69.1113 71.5015 68.75C71.5015 68.3887 71.4304 68.0309 71.2921 67.697C71.1538 67.3632 70.9511 67.0599 70.6956 66.8044L65.1956 61.3044ZM13.75 41.25C13.75 40.5207 13.4603 39.8212 12.9445 39.3055C12.4288 38.7897 11.7293 38.5 11 38.5H2.75C2.02065 38.5 1.32118 38.7897 0.805456 39.3055C0.289731 39.8212 0 40.5207 0 41.25C0 41.9793 0.289731 42.6788 0.805456 43.1945C1.32118 43.7103 2.02065 44 2.75 44H11C11.7293 44 12.4288 43.7103 12.9445 43.1945C13.4603 42.6788 13.75 41.9793 13.75 41.25ZM41.25 68.75C40.5207 68.75 39.8212 69.0397 39.3055 69.5555C38.7897 70.0712 38.5 70.7707 38.5 71.5V79.75C38.5 80.4793 38.7897 81.1788 39.3055 81.6945C39.8212 82.2103 40.5207 82.5 41.25 82.5C41.9793 82.5 42.6788 82.2103 43.1945 81.6945C43.7103 81.1788 44 80.4793 44 79.75V71.5C44 70.7707 43.7103 70.0712 43.1945 69.5555C42.6788 69.0397 41.9793 68.75 41.25 68.75ZM79.75 38.5H71.5C70.7707 38.5 70.0712 38.7897 69.5555 39.3055C69.0397 39.8212 68.75 40.5207 68.75 41.25C68.75 41.9793 69.0397 42.6788 69.5555 43.1945C70.0712 43.7103 70.7707 44 71.5 44H79.75C80.4793 44 81.1788 43.7103 81.6945 43.1945C82.2103 42.6788 82.5 41.9793 82.5 41.25C82.5 40.5207 82.2103 39.8212 81.6945 39.3055C81.1788 38.7897 80.4793 38.5 79.75 38.5Z" fill="#ED3237"/>
</svg>
