<svg width="15" height="23" viewBox="0 0 15 23" fill="none" xmlns="http://www.w3.org/2000/svg">
<path d="M5.40102 13.6495V21.9252C5.40102 22.4626 5.65499 22.803 6.16295 22.9463C6.6709 23.0896 7.06411 22.9463 7.34258 22.5164L14.794 11.0164C15.0389 10.6581 15.0654 10.2912 14.8737 9.91579C14.682 9.54034 14.3756 9.3519 13.9544 9.35047H9.59898V1.07476C9.59898 0.537381 9.34501 0.19704 8.83705 0.0537383C8.3291 -0.0895638 7.93589 0.0537382 7.65742 0.483645L0.206029 11.9836C-0.0388521 12.3419 -0.065438 12.7095 0.126269 13.0864C0.317976 13.4632 0.624428 13.651 1.04562 13.6495H5.40102Z" fill="#ED3237"/>
</svg>
