<svg width="61" height="75" viewBox="0 0 61 75" fill="none" xmlns="http://www.w3.org/2000/svg">
<path d="M26.7082 44.0833V58.6813C26.7082 59.6292 27.167 60.2295 28.0845 60.4823C29.0021 60.7351 29.7124 60.4823 30.2155 59.724L43.6759 39.4385C44.1182 38.8066 44.1663 38.1595 43.82 37.4972C43.4737 36.8349 42.9201 36.5025 42.1592 36.5H34.2915V21.9021C34.2915 20.9542 33.8327 20.3538 32.9151 20.101C31.9975 19.8483 31.2872 20.101 30.7842 20.8594L17.3238 41.1448C16.8814 41.7767 16.8334 42.4251 17.1797 43.0899C17.526 43.7547 18.0796 44.0859 18.8405 44.0833H26.7082ZM30.4998 74.4167C21.8422 74.4167 14.6229 71.4465 8.84184 65.5063C3.06081 59.566 0.169032 52.1722 0.166504 43.325C0.166504 39.4069 1.05123 35.4889 2.82067 31.5708C4.59011 27.6528 6.80192 23.8927 9.45609 20.2906C12.1103 16.6885 14.9856 13.3076 18.0821 10.1479C21.1787 6.9882 24.054 4.23924 26.7082 1.90104C27.2137 1.39549 27.7989 1.03275 28.4637 0.812835C29.1285 0.592918 29.8072 0.481696 30.4998 0.479168C31.1924 0.47664 31.8724 0.587863 32.5398 0.812835C33.2071 1.03781 33.791 1.40054 34.2915 1.90104C36.9457 4.23924 39.821 6.9882 42.9175 10.1479C46.0141 13.3076 48.8894 16.6885 51.5436 20.2906C54.1978 23.8927 56.4096 27.6528 58.179 31.5708C59.9484 35.4889 60.8332 39.4069 60.8332 43.325C60.8332 52.1722 57.9427 59.566 52.1616 65.5063C46.3806 71.4465 39.16 74.4167 30.4998 74.4167ZM30.4998 66.8333C37.0721 66.8333 42.5068 64.6051 46.804 60.1486C51.1012 55.6922 53.2498 50.0843 53.2498 43.325C53.2498 38.7118 51.3376 33.4983 47.513 27.6844C43.6885 21.8705 38.0174 15.5194 30.4998 8.63125C22.9797 15.5194 17.3086 21.8705 13.4866 27.6844C9.66463 33.4983 7.75237 38.7118 7.74984 43.325C7.74984 50.0868 9.89845 55.696 14.1957 60.1524C18.4929 64.6089 23.9276 66.8359 30.4998 66.8333Z" fill="#ED3237"/>
</svg>
