<svg width="33" height="33" viewBox="0 0 33 33" fill="none" xmlns="http://www.w3.org/2000/svg">
<path d="M2 14.8727C2 8.80482 2 5.77008 3.88585 3.88585C5.77169 2.00161 8.80482 2 14.8727 2H18.0908C24.1587 2 27.1934 2 29.0777 3.88585C30.9619 5.77169 30.9635 8.80482 30.9635 14.8727V18.0908C30.9635 24.1587 30.9635 27.1934 29.0777 29.0777C27.1918 30.9619 24.1587 30.9635 18.0908 30.9635H14.8727C8.80482 30.9635 5.77008 30.9635 3.88585 29.0777C2.00161 27.1918 2 24.1587 2 18.0908V14.8727Z" stroke="white" stroke-width="3"/>
<path d="M25.3874 9.2409C25.3874 10.1606 24.6419 10.9061 23.7222 10.9061C22.8026 10.9061 22.057 10.1606 22.057 9.2409C22.057 8.32123 22.8026 7.57569 23.7222 7.57569C24.6419 7.57569 25.3874 8.32123 25.3874 9.2409Z" fill="white" stroke="white" stroke-width="1.49683"/>
<path d="M16.4815 21.309C19.1476 21.309 21.3088 19.1478 21.3088 16.4818C21.3088 13.8158 19.1476 11.6545 16.4815 11.6545C13.8155 11.6545 11.6543 13.8158 11.6543 16.4818C11.6543 19.1478 13.8155 21.309 16.4815 21.309Z" stroke="white" stroke-width="2.99367"/>
</svg>
