<svg width="27" height="29" viewBox="0 0 27 29" fill="none" xmlns="http://www.w3.org/2000/svg">
<path d="M5.99248 28.9533H0.629865V10.2455H5.99248V28.9533ZM3.30794 7.69362C1.59338 7.69362 0.202148 6.15448 0.202148 4.29711C0.202148 3.40479 0.529365 2.54902 1.11181 1.91805C1.69426 1.28709 2.48423 0.932617 3.30794 0.932617C4.13165 0.932617 4.92162 1.28709 5.50407 1.91805C6.08652 2.54902 6.41373 3.40479 6.41373 4.29711C6.41373 6.15448 5.0225 7.69362 3.30794 7.69362ZM26.0628 28.9533H20.7122V19.8466C20.7122 17.676 20.6716 14.8929 17.9242 14.8929C15.1362 14.8929 14.7085 17.2507 14.7085 19.6905V28.9533H9.3514V10.2455H14.4942V12.7974H14.569C15.2849 11.3273 17.0337 9.77616 19.6425 9.77616C25.0697 9.77616 26.0674 13.648 26.0674 18.6767V28.9533H26.0628Z" fill="white"/>
</svg>
