<svg width="32" height="40" viewBox="0 0 32 40" fill="none" xmlns="http://www.w3.org/2000/svg">
<path fill-rule="evenodd" clip-rule="evenodd" d="M17.0549 38.58L17.0353 38.5836L16.9091 38.6458L16.8735 38.6529L16.8486 38.6458L16.7224 38.5836C16.7034 38.5777 16.6892 38.5806 16.6797 38.5925L16.6726 38.6103L16.6424 39.3712L16.6513 39.4067L16.6691 39.4298L16.854 39.5614L16.8806 39.5685L16.902 39.5614L17.0869 39.4298L17.1082 39.4014L17.1153 39.3712L17.0851 38.612C17.0803 38.5931 17.0703 38.5824 17.0549 38.58ZM17.526 38.3792L17.5029 38.3827L17.174 38.548L17.1562 38.5658L17.1509 38.5854L17.1829 39.3498L17.1917 39.3712L17.206 39.3836L17.5633 39.5489C17.5858 39.5549 17.603 39.5501 17.6149 39.5347L17.622 39.5098L17.5615 38.4183C17.5556 38.3969 17.5437 38.3839 17.526 38.3792ZM16.2549 38.3827C16.247 38.378 16.2377 38.3764 16.2287 38.3784C16.2198 38.3804 16.2119 38.3858 16.2069 38.3934L16.1962 38.4183L16.1357 39.5098C16.1369 39.5312 16.147 39.5454 16.166 39.5525L16.1926 39.5489L16.55 39.3836L16.5677 39.3694L16.5749 39.3498L16.6051 38.5854L16.5997 38.564L16.582 38.5463L16.2549 38.3827Z" fill="white"/>
<path fill-rule="evenodd" clip-rule="evenodd" d="M16 0.788086C20.2435 0.788086 24.3131 2.4738 27.3137 5.47438C30.3143 8.47496 32 12.5446 32 16.7881C32 22.253 29.0204 26.7259 25.8809 29.9348C24.3123 31.5206 22.6008 32.9584 20.768 34.2299L20.0107 34.7454L19.6551 34.9819L18.9849 35.4085L18.3876 35.773L17.648 36.2032C17.146 36.4897 16.578 36.6404 16 36.6404C15.422 36.6404 14.854 36.4897 14.352 36.2032L13.6124 35.773L12.688 35.2041L12.3467 34.9819L11.6178 34.4965C9.64059 33.1588 7.79894 31.6309 6.11911 29.9348C2.97956 26.7241 0 22.253 0 16.7881C0 12.5446 1.68571 8.47496 4.68629 5.47438C7.68687 2.4738 11.7565 0.788086 16 0.788086ZM16 4.34364C12.6995 4.34364 9.53424 5.65475 7.20045 7.98854C4.86666 10.3223 3.55556 13.4876 3.55556 16.7881C3.55556 20.9161 5.81689 24.5392 8.65956 27.4476C9.88183 28.685 11.2029 29.8206 12.6098 30.8432L13.424 31.4228C13.6871 31.6065 13.9401 31.7771 14.1831 31.9348L14.8764 32.3792L15.4862 32.7508L16 33.0512L16.8089 32.573L17.4613 32.1641C17.8086 31.9436 18.1801 31.6965 18.576 31.4228L19.3902 30.8432C20.7971 29.8206 22.1182 28.685 23.3404 27.4476C26.1831 24.541 28.4444 20.9161 28.4444 16.7881C28.4444 13.4876 27.1333 10.3223 24.7996 7.98854C22.4658 5.65475 19.3005 4.34364 16 4.34364ZM16 9.67698C17.886 9.67698 19.6947 10.4262 21.0283 11.7598C22.3619 13.0934 23.1111 14.9021 23.1111 16.7881C23.1111 18.6741 22.3619 20.4828 21.0283 21.8164C19.6947 23.15 17.886 23.8992 16 23.8992C14.114 23.8992 12.3053 23.15 10.9717 21.8164C9.63809 20.4828 8.88889 18.6741 8.88889 16.7881C8.88889 14.9021 9.63809 13.0934 10.9717 11.7598C12.3053 10.4262 14.114 9.67698 16 9.67698ZM16 13.2325C15.057 13.2325 14.1526 13.6071 13.4858 14.2739C12.819 14.9407 12.4444 15.8451 12.4444 16.7881C12.4444 17.7311 12.819 18.6354 13.4858 19.3022C14.1526 19.969 15.057 20.3436 16 20.3436C16.943 20.3436 17.8474 19.969 18.5142 19.3022C19.181 18.6354 19.5556 17.7311 19.5556 16.7881C19.5556 15.8451 19.181 14.9407 18.5142 14.2739C17.8474 13.6071 16.943 13.2325 16 13.2325Z" fill="white"/>
</svg>
