<svg width="69" height="70" viewBox="0 0 69 70" fill="none" xmlns="http://www.w3.org/2000/svg">
<path d="M9.625 5.62506H28.875V12.0417H9.625V5.62506ZM0 18.4584H16.0417V24.8751H0V18.4584ZM6.41667 56.9584H22.4583V63.3751H6.41667V56.9584ZM68.0488 55.7071L60.7338 42.5209C59.8479 40.9989 58.3938 39.891 56.6913 39.4409L48.125 37.2913C47.9967 35.7834 47.6117 34.3396 46.8738 33.0242L59.5788 11.8813C61.6642 8.41631 60.5413 3.92464 57.0763 1.83922C55.7085 1.03116 54.1157 0.688193 52.5366 0.861721C50.9575 1.03525 49.4771 1.71593 48.3175 2.80172L37.3129 13.1005C36.0296 14.2876 35.2917 15.988 35.2917 17.7526V28.6609C33.7838 29.2063 32.4363 30.1046 31.3454 31.2917H7.315C3.20833 31.2917 0 34.5001 0 38.6067C0 41.8792 2.14958 44.7346 5.29375 45.633L19.7633 49.7717C20.3408 49.9321 20.9504 50.0284 21.5279 50.0284C22.6829 50.0284 23.8379 49.7076 24.8325 49.098L32.0833 44.7988C32.9496 45.633 34.0404 46.3067 35.2917 46.7559V63.3751C31.7625 63.3751 28.875 66.2626 28.875 69.7917H48.125C48.125 66.2626 45.2375 63.3751 41.7083 63.3751V49.6434L56.4988 64.4338C57.9425 65.8775 59.8033 66.5834 61.6642 66.5834C63.525 66.5834 65.4179 65.8775 66.8296 64.4338C69.1396 62.1238 69.6529 58.5626 68.0488 55.7071ZM21.56 43.6117L7.05833 39.473C6.67333 39.3126 6.41667 38.9917 6.41667 38.6067C6.41667 38.1255 6.83375 37.7084 7.315 37.7084H28.875C28.875 38.1896 28.875 38.6709 29.0033 39.1201L21.56 43.6117ZM38.5 40.9167C36.7354 40.9167 35.2917 39.473 35.2917 37.7084C35.2917 35.9438 36.7354 34.5001 38.5 34.5001C40.2646 34.5001 41.7083 35.9438 41.7083 37.7084C41.7083 39.473 40.2646 40.9167 38.5 40.9167ZM41.7083 28.5326V17.7526L52.7129 7.45381C52.9375 7.22922 53.3225 7.06881 53.8038 7.32547C54.2208 7.58214 54.3813 8.12756 54.1246 8.54464L42.1254 28.5646L41.7083 28.5326ZM62.3058 59.9101C62.1454 60.0705 61.5358 60.4234 60.9583 59.9101L45.4621 44.3496C45.7188 44.1251 45.9754 43.7721 46.2321 43.4513L55.1513 45.7292L62.4663 58.8192C62.6588 59.1721 62.5625 59.6213 62.3058 59.9101Z" fill="#ED3237"/>
</svg>
