<svg width="64" height="76" viewBox="0 0 64 76" fill="none" xmlns="http://www.w3.org/2000/svg">
<path d="M48 28C48 49.32 16 49.32 16 28H24C24 38.68 40 38.68 40 28M64 64V76H0V64C0 53.32 21.32 48 32 48C42.68 48 64 53.32 64 64ZM56.4 64C56.4 61.44 43.88 55.6 32 55.6C20.12 55.6 7.6 61.44 7.6 64V68.4H56.4M34 0C35.12 0 36 0.88 36 2V14H40V4C42.8308 5.31009 45.2026 7.44077 46.8074 10.1155C48.4123 12.7903 49.1762 15.8857 49 19C49 19 51.8 19.56 52 24H12C12 19.56 15 19 15 19C14.8238 15.8857 15.5877 12.7903 17.1926 10.1155C18.7974 7.44077 21.1692 5.31009 24 4V14H28V2C28 0.88 28.88 0 30 0" fill="#ED3237"/>
</svg>
