<svg width="99" height="99" viewBox="0 0 99 99" fill="none" xmlns="http://www.w3.org/2000/svg">
<path d="M12.375 70.125H29.2875C28.1187 68.9562 27.0366 67.6844 26.0411 66.3094C25.0456 64.9344 24.1684 63.4562 23.4094 61.875H12.375V70.125ZM49.5 70.125C55.2062 70.125 60.071 68.1134 64.0942 64.0901C68.1175 60.0669 70.1277 55.2035 70.125 49.5C70.1223 43.7965 68.1106 38.9331 64.0901 34.9099C60.0696 30.8866 55.2062 28.875 49.5 28.875C43.7938 28.875 38.9304 30.8866 34.9099 34.9099C30.8894 38.9331 28.8778 43.7965 28.875 49.5C28.8722 55.2035 30.8839 60.0682 34.9099 64.0942C38.9359 68.1203 43.7993 70.1305 49.5 70.125ZM75.5906 37.125H86.625V28.875H69.7125C70.8812 30.0437 71.9648 31.3156 72.963 32.6906C73.9613 34.0656 74.8371 35.5438 75.5906 37.125ZM4.125 82.5V49.5H12.375V53.625H20.9344C20.7969 52.9375 20.7116 52.2665 20.6786 51.612C20.6456 50.9575 20.6278 50.2535 20.625 49.5C20.625 41.4562 23.4272 34.6335 29.0317 29.0318C34.6362 23.43 41.459 20.6277 49.5 20.625H86.625V16.5H94.875V49.5H86.625V45.375H78.0656C78.2031 46.0625 78.2898 46.7335 78.3255 47.388C78.3613 48.0425 78.3777 48.7465 78.375 49.5C78.375 57.5438 75.5741 64.3679 69.9724 69.9724C64.3706 75.5769 57.5465 78.3778 49.5 78.375H12.375V82.5H4.125ZM49.5 61.875C47.2313 61.875 45.2898 61.0679 43.6755 59.4536C42.0613 57.8394 41.2528 55.8965 41.25 53.625C41.25 52.0438 41.5773 50.4804 42.2318 48.9349C42.8862 47.3894 44.1402 45.1715 45.9937 42.2812L49.5 37.125L53.0063 42.2812C54.8625 45.1688 56.1179 47.3866 56.7724 48.9349C57.4269 50.4831 57.7528 52.0465 57.75 53.625C57.75 55.8937 56.9429 57.8366 55.3286 59.4536C53.7144 61.0706 51.7715 61.8778 49.5 61.875Z" fill="#ED3237"/>
</svg>
